#!OML:ASF H:\Punching\Project 1\Capture day 1\Session 1\female.ASF
:FULLY-SPECIFIED
:DEGREES
958
root -0.198553 14.1186 -0.148748 20.3181 -14.5034 -6.3456
lowerback -6.99346 4.09611 10.9501
upperback -8.65004 5.02192 -1.60532
thorax -4.20419 1.87801 -7.61934
lowerneck -14.0016 5.85123 10.6159
upperneck 29.633 8.30184 -8.59847
head 13.0693 3.78827 -3.87267
rclavicle 1.28962e-014 9.14409e-015
rhumerus -1.08397 24.5735 -75.7801
rradius 130.069
rwrist -9.29487
rhand -31.1478 11.2762
rfingers 7.12502
rthumb -4.42587 -18.6576
lclavicle 1.28962e-014 9.14409e-015
lhumerus -18.5868 -5.20194 49.2466
lradius 141.552
lwrist -2.05465
lhand -28.4146 3.53598
lfingers 7.12502
lthumb -1.78634 33.5083
rfemur 10.0233 8.35351 24.2802
rtibia 19.4187
rfoot -30.8642 -37.5171
rtoes -20.0907
lfemur -66.1164 5.92634 -12.2344
ltibia 57.8194
lfoot -7.42875 13.2568
ltoes 8.69575
959
root -0.142613 14.1194 -0.00450191 19.836 -13.7133 -5.89246
lowerback -7.03846 4.3118 10.6963
upperback -8.7751 5.32158 -1.63217
thorax -4.26421 2.03463 -7.48602
lowerneck -14.3484 5.39402 10.1282
upperneck 30.0597 7.62126 -8.13568
head 13.1892 3.48687 -3.7239
rclavicle -1.10698e-014 -1.43125e-014
rhumerus -1.71989 23.7985 -75.2465
rradius 130.095
rwrist -9.27936
rhand -31.1633 11.3753
rfingers 7.12502
rthumb -4.44086 -18.5581
lclavicle -1.10698e-014 -1.43125e-014
lhumerus -19.1766 -5.47174 49.2079
lradius 141.593
lwrist -2.0755
lhand -28.2388 3.85024
lfingers 7.12502
lthumb -1.61657 33.8239
rfemur 10.4885 7.78892 23.742
rtibia 20.2349
rfoot -29.7856 -37.352
rtoes -20.9597
lfemur -65.5976 5.00056 -12.9185
ltibia 58.1939
lfoot -8.09232 12.989
ltoes 8.20056
960
root -0.0850377 14.1278 0.14218 19.2996 -13.0084 -5.42621
lowerback -7.02854 4.5348 10.3922
upperback -8.89285 5.63889 -1.65584
thorax -4.34918 2.20217 -7.32397
lowerneck -14.6241 4.92956 9.65244
upperneck 30.4648 6.94319 -7.70869
head 13.2965 3.18668 -3.59108
rclavicle -6.53505e-015 1.90833e-014
rhumerus -2.46542 23.0061 -74.676
rradius 130.1
rwrist -9.2652
rhand -31.2149 11.4508
rfingers 7.12502
rthumb -4.49067 -18.4816
lclavicle -6.53505e-015 1.90833e-014
lhumerus -19.7835 -5.7768 49.2133
lradius 141.595
lwrist -2.10306
lhand -28.0601 3.9774
lfingers 7.12502
lthumb -1.444 33.9523
rfemur 10.8019 7.21357 23.1083
rtibia 21.3429
rfoot -28.3216 -37.2121
rtoes -21.6855
lfemur -64.9007 4.25753 -13.7207
ltibia 58.45
lfoot -8.72741 12.6045
ltoes 7.76725
961
root -0.0265158 14.1432 0.29041 18.7106 -12.3668 -4.98726
lowerback -6.95182 4.75814 10.077
upperback -8.99658 5.96413 -1.66402
thorax -4.46013 2.37422 -7.14433
lowerneck -14.8525 4.4626 9.20922
upperneck 30.8579 6.26948 -7.32706
head 13.401 2.88865 -3.48111
rclavicle -3.7943e-014 -2.0276e-014
rhumerus -3.31128 22.1952 -74.078
rradius 130.065
rwrist -9.27908
rhand -31.2988 11.5319
rfingers 7.12502
rthumb -4.57166 -18.3988
lclavicle -3.7943e-014 -2.0276e-014
lhumerus -20.3899 -6.12479 49.2656
lradius 141.579
lwrist -2.15337
lhand -27.8499 4.05329
lfingers 7.12502
lthumb -1.24093 34.0294
rfemur 10.9582 6.65571 22.4376
rtibia 22.7543
rfoot -26.4823 -37.0791
rtoes -21.9613
lfemur -64.0288 3.68901 -14.5843
ltibia 58.5944
lfoot -9.344 12.1329
ltoes 7.40883
962
root 0.032181 14.1653 0.438842 18.0758 -11.7609 -4.58332
lowerback -6.8289 4.97258 9.77099
upperback -9.0871 6.28138 -1.65582
thorax -4.58875 2.5421 -6.95794
lowerneck -14.9971 4.00093 8.80566
upperneck 31.2269 5.60768 -6.97957
head 13.489 2.59875 -3.38941
rclavicle -1.04362e-014 2.98177e-015
rhumerus -4.25719 21.3773 -73.4716
rradius 129.992
rwrist -9.32894
rhand -31.4119 11.5814
rfingers 7.12502
rthumb -4.68088 -18.3469
lclavicle -1.04362e-014 2.98177e-015
lhumerus -20.989 -6.53951 49.3698
lradius 141.545
lwrist -2.23135
lhand -27.6608 4.08675
lfingers 7.12502
lthumb -1.05829 34.0639
rfemur 10.914 6.10034 21.7515
rtibia 24.49
rfoot -24.0891 -37.0241
rtoes -21.6545
lfemur -62.9883 3.25714 -15.4711
ltibia 58.6141
lfoot -9.94779 11.6001
ltoes 7.17001
963
root 0.0901703 14.1938 0.585952 17.385 -11.1756 -4.19526
lowerback -6.64483 5.16273 9.45277
upperback -9.15275 6.57147 -1.63705
thorax -4.73528 2.69756 -6.76187
lowerneck -15.1184 3.55549 8.44259
upperneck 31.5987 4.96118 -6.64268
head 13.5839 2.32022 -3.30617
rclavicle -6.20084e-014 -2.82274e-014
rhumerus -5.25753 20.5484 -72.861
rradius 129.871
rwrist -9.42277
rhand -31.542 11.6156
rfingers 7.12502
rthumb -4.80647 -18.3099
lclavicle -6.20084e-014 -2.82274e-014
lhumerus -21.5424 -7.00624 49.5111
lradius 141.511
lwrist -2.32399
lhand -27.4983 4.14864
lfingers 7.12502
lthumb -0.901402 34.1265
rfemur 10.6457 5.52943 21.0447
rtibia 26.5787
rfoot -21.0117 -37.0465
rtoes -20.5917
lfemur -61.7693 2.90826 -16.3655
ltibia 58.4886
lfoot -10.5325 11.0509
ltoes 7.10033
964
root 0.146618 14.2281 0.72961 16.6415 -10.5785 -3.79068
lowerback -6.41795 5.31221 9.09836
upperback -9.19657 6.8104 -1.61584
thorax -4.89815 2.82966 -6.55211
lowerneck -15.187 3.13504 8.11861
upperneck 31.9691 4.33854 -6.29734
head 13.6769 2.05971 -3.22206
rclavicle 7.57245e-014 2.52457e-014
rhumerus -6.32005 19.7168 -72.2678
rradius 129.722
rwrist -9.54555
rhand -31.6512 11.5675
rfingers 7.12502
rthumb -4.91198 -18.3556
lclavicle 7.57245e-014 2.52457e-014
lhumerus -22.0389 -7.52209 49.682
lradius 141.472
lwrist -2.40956
lhand -27.3907 4.18209
lfingers 7.12502
lthumb -0.797449 34.1603
rfemur 10.1229 4.89367 20.2991
rtibia 29.0498
rfoot -17.1393 -37.0496
rtoes -18.6328
lfemur -60.3857 2.58354 -17.2754
ltibia 58.1953
lfoot -11.0703 10.5107
ltoes 7.18496
965
root 0.200697 14.2672 0.867965 15.8409 -9.94893 -3.34035
lowerback -6.13583 5.40663 8.67679
upperback -9.21596 6.97981 -1.60178
thorax -5.08589 2.93039 -6.32403
lowerneck -15.2176 2.74437 7.83379
upperneck 32.3411 3.73898 -5.92608
head 13.7716 1.81894 -3.13
rclavicle -3.08675e-014 -2.44505e-014
rhumerus -7.41147 18.8828 -71.7024
rradius 129.546
rwrist -9.67882
rhand -31.7187 11.4569
rfingers 7.12502
rthumb -4.97708 -18.4647
lclavicle -3.08675e-014 -2.44505e-014
lhumerus -22.4449 -8.06234 49.8631
lradius 141.421
lwrist -2.47081
lhand -27.3442 4.16613
lfingers 7.12502
lthumb -0.752495 34.1445
rfemur 9.34354 4.17131 19.5036
rtibia 31.9159
rfoot -12.6042 -36.7453
rtoes -15.639
lfemur -58.8476 2.23824 -18.2134
ltibia 57.7268
lfoot -11.5416 10.0011
ltoes 7.43897
966
root 0.251817 14.3102 0.999596 14.9873 -9.27206 -2.8407
lowerback -5.78604 5.43962 8.18192
upperback -9.21 7.07084 -1.59866
thorax -5.30543 2.99538 -6.07948
lowerneck -15.2287 2.38329 7.59051
upperneck 32.7187 3.15714 -5.52231
head 13.8728 1.59663 -3.02858
rclavicle 5.31128e-015 5.36719e-015
rhumerus -8.51236 18.0474 -71.1729
rradius 129.354
rwrist -9.80497
rhand -31.7281 11.2876
rfingers 7.12502
rthumb -4.98624 -18.6337
lclavicle 5.31128e-015 5.36719e-015
lhumerus -22.7356 -8.60939 50.0442
lradius 141.362
lwrist -2.50478
lhand -27.3495 4.10495
lfingers 7.12502
lthumb -0.75768 34.0834
rfemur 8.32137 3.37737 18.6762
rtibia 35.1661
rfoot -7.8038 -35.8169
rtoes -11.9221
lfemur -57.1734 1.83822 -19.1668
ltibia 57.0896
lfoot -11.9194 9.54128
ltoes 7.79294
967
root 0.29939 14.3551 1.12351 14.0916 -8.52475 -2.29441
lowerback -5.37669 5.40097 7.60643
upperback -9.17257 7.06714 -1.5986
thorax -5.54873 3.01795 -5.80442
lowerneck -15.2383 2.05681 7.38389
upperneck 33.1004 2.60169 -5.09129
head 13.9848 1.39516 -2.91756
rclavicle 2.95475e-014 2.28105e-014
rhumerus -9.59507 17.2194 -70.6815
rradius 129.15
rwrist -9.91081
rhand -31.6824 11.1198
rfingers 7.12502
rthumb -4.94207 -18.8026
lclavicle 2.95475e-014 2.28105e-014
lhumerus -22.9016 -9.12833 50.2271
lradius 141.304
lwrist -2.5249
lhand -27.3151 4.07589
lfingers 7.12502
lthumb -0.724391 34.0544
rfemur 7.08539 2.56151 17.8521
rtibia 38.7647
rfoot -3.34481 -34.0775
rtoes -8.25614
lfemur -55.3988 1.34689 -20.1195
ltibia 56.31
lfoot -12.1911 9.14319
ltoes 8.19091
968
root 0.343422 14.4005 1.23934 13.1937 -7.69306 -1.71756
lowerback -4.95166 5.29645 6.9654
upperback -9.11552 6.97089 -1.59788
thorax -5.80087 2.99911 -5.49711
lowerneck -15.1968 1.75835 7.23215
upperneck 33.4589 2.07018 -4.66201
head 14.0841 1.21214 -2.81148
rclavicle 3.5966e-014 6.18717e-015
rhumerus -10.6567 16.4163 -70.2242
rradius 128.947
rwrist -9.98107
rhand -31.6028 10.9332
rfingers 7.12502
rthumb -4.86521 -18.9909
lclavicle 3.5966e-014 6.18717e-015
lhumerus -22.9624 -9.64105 50.4373
lradius 141.233
lwrist -2.57338
lhand -27.2883 4.02642
lfingers 7.12502
lthumb -0.698512 34.005
rfemur 5.63348 1.7666 17.0586
rtibia 42.654
rfoot 0.342683 -31.4909
rtoes -5.65234
lfemur -53.5877 0.742337 -21.0504
ltibia 55.4213
lfoot -12.3511 8.8097
ltoes 8.58693
969
root 0.383961 14.4442 1.34754 12.322 -6.77396 -1.13028
lowerback -4.53869 5.1289 6.27263
upperback -9.03537 6.7827 -1.58782
thorax -6.03938 2.93992 -5.15023
lowerneck -15.1508 1.49185 7.12611
upperneck 33.8147 1.56969 -4.23805
head 14.1899 1.04875 -2.70967
rclavicle -7.01648e-015 -1.30204e-014
rhumerus -11.6691 15.6489 -69.7865
rradius 128.75
rwrist -10.0229
rhand -31.5229 10.761
rfingers 7.12502
rthumb -4.7881 -19.1649
lclavicle -7.01648e-015 -1.30204e-014
lhumerus -22.9206 -10.1212 50.6832
lradius 141.156
lwrist -2.67746
lhand -27.2523 3.98636
lfingers 7.12502
lthumb -0.663794 33.9651
rfemur 3.98529 1.03469 16.3218
rtibia 46.7604
rfoot 2.8102 -28.2303
rtoes -4.51197
lfemur -51.7923 0.00617378 -21.9386
ltibia 54.4645
lfoot -12.4076 8.56183
ltoes 8.92844
